<?xml version="1.0" encoding="UTF-8"?>
<svg xmlns="http://www.w3.org/2000/svg" xmlns:xlink="http://www.w3.org/1999/xlink" width="727.8pt" height="448.9pt" viewBox="0 0 727.8 448.9" version="1.1">
<defs>
<clipPath id="clip1">
  <path d="M 6 316 L 727 316 L 727 448.898438 L 6 448.898438 Z M 6 316 "/>
</clipPath>
<clipPath id="clip2">
  <path d="M 11 317 L 727.800781 317 L 727.800781 443 L 11 443 Z M 11 317 "/>
</clipPath>
<clipPath id="clip3">
  <path d="M 19 313 L 727.800781 313 L 727.800781 434 L 19 434 Z M 19 313 "/>
</clipPath>
</defs>
<g id="surface1">
<path style="fill-rule:evenodd;fill:rgb(3.529358%,0.784302%,1.960754%);fill-opacity:1;stroke-width:63.629;stroke-linecap:round;stroke-linejoin:round;stroke:rgb(3.529358%,0.784302%,1.960754%);stroke-opacity:1;stroke-miterlimit:4;" d="M 4335.703125 251.148438 C 4335.703125 251.148438 4316.132813 197.945313 4345.390625 177.59375 C 4374.6875 157.28125 4394.765625 177.59375 4408.984375 202.554688 C 4423.203125 227.515625 4495.351563 485.445313 4574.296875 475.5625 C 4653.242188 465.679688 4591.71875 262.789063 4583.359375 234.585938 C 4575.039063 206.460938 4614.570313 130.484375 4683.671875 191.148438 C 4752.8125 251.8125 4882.265625 377.945313 4887.695313 359.859375 C 4893.125 341.695313 4864.84375 202.046875 4956.796875 178.296875 C 5048.75 154.546875 5139.84375 296.773438 5171.875 268.882813 C 5203.90625 241.03125 5239.335938 177.125 5339.804688 187.476563 C 5440.273438 197.867188 5528.671875 301.304688 5528.046875 280.40625 C 5527.382813 259.46875 5510.429688 194.234375 5551.953125 182.476563 C 5593.4375 170.757813 5630.078125 195.054688 5639.375 254.546875 C 5648.671875 314.078125 5663.671875 413.765625 5709.84375 407.867188 C 5755.976563 401.96875 5763.359375 350.914063 5763.046875 291.109375 C 5762.734375 231.304688 5765.859375 187.867188 5851.09375 188.257813 C 5936.328125 188.648438 6030.46875 287.359375 6030.46875 287.359375 C 6030.46875 287.359375 6036.640625 196.03125 6182.8125 184.039063 C 6328.90625 172.085938 6410 329.546875 6418.28125 306.890625 C 6426.5625 284.234375 6413.59375 205.367188 6437.03125 188.179688 C 6460.429688 171.070313 6517.734375 188.6875 6524.101563 249.859375 C 6530.46875 310.914063 6536.5625 413.882813 6581.054688 449.898438 C 6625.46875 485.914063 6685.625 497.515625 6693.359375 456.929688 C 6701.09375 416.304688 6640.234375 332.984375 6651.054688 247.4375 C 6661.914063 161.890625 6734.140625 177.59375 6806.015625 230.71875 C 6877.929688 283.804688 6937.929688 388.140625 6911.640625 408.375 C 6885.351563 428.648438 6806.679688 252.164063 6762.929688 287.632813 C 6719.140625 323.0625 6795.820313 482.164063 6813.164063 511.539063 C 6830.507813 540.953125 6820.429688 602.554688 6759.726563 622.359375 C 6699.0625 642.125 6630.976563 520.171875 6579.335938 541.148438 C 6527.65625 562.164063 6571.132813 614.703125 6524.765625 614.585938 C 6478.4375 614.507813 6444.335938 525.875 6440.898438 463.179688 C 6437.460938 400.484375 6424.609375 370.289063 6424.609375 370.289063 C 6424.609375 370.289063 6281.71875 245.289063 6199.453125 243.296875 C 6117.148438 241.382813 6114.765625 358.023438 6114.765625 358.023438 C 6114.765625 358.023438 6244.179688 337.632813 6327.382813 417.359375 C 6410.546875 496.96875 6397.460938 655.210938 6268.671875 648.257813 C 6139.882813 641.304688 6047.382813 452.789063 6033.90625 354.546875 C 6033.90625 354.546875 5958.59375 286.617188 5874.570313 277.203125 C 5790.585938 267.789063 5792.421875 424.78125 5810.195313 469.039063 C 5828.007813 513.335938 5955.859375 537.828125 5970.585938 579.234375 C 5985.273438 620.640625 5943.046875 657.828125 5867.617188 634.703125 C 5792.148438 611.617188 5725.234375 476.109375 5710.15625 472.085938 C 5695.078125 468.101563 5726.601563 570.289063 5755.742188 642.632813 C 5784.84375 714.976563 5841.757813 814.898438 5814.84375 815.71875 C 5787.96875 816.539063 5732.8125 821.265625 5716.757813 785.875 C 5700.742188 750.445313 5560.625 373.570313 5545.3125 360.5625 C 5529.960938 347.59375 5398.164063 241.03125 5323.75 252.28125 C 5249.335938 263.53125 5231.484375 364.195313 5272.96875 449.664063 C 5314.492188 535.09375 5379.804688 569.039063 5396.953125 543.023438 C 5414.101563 517.085938 5371.953125 458.609375 5428.476563 449.351563 C 5485 440.171875 5501.328125 533.84375 5461.171875 590.40625 C 5421.054688 646.929688 5317.890625 647.085938 5230.898438 540.640625 C 5143.945313 434.195313 5160.390625 336.539063 5160.390625 336.539063 C 5160.390625 336.539063 5067.773438 240.679688 5007.539063 275.40625 C 4947.304688 310.132813 4985.703125 392.632813 5018.59375 441.03125 C 5051.445313 489.351563 5090.273438 537.476563 5068.554688 559.078125 C 5046.796875 580.679688 5022.070313 602.359375 4998.867188 577.671875 C 4975.664063 552.945313 4799.101563 302.671875 4727.1875 298.921875 C 4655.3125 295.171875 4681.171875 406.539063 4709.453125 451.96875 C 4737.773438 497.4375 4772.460938 556.1875 4732.148438 606.734375 C 4691.835938 657.359375 4554.335938 561.382813 4554.335938 561.382813 C 4554.335938 561.382813 4638.984375 835.367188 4621.09375 835.914063 C 4603.164063 836.460938 4531.640625 844.625 4520.351563 818.0625 C 4509.101563 791.539063 4399.453125 373.257813 4335.703125 251.148438 Z M 6146.484375 418.609375 C 6146.484375 418.609375 6223.046875 586.578125 6291.601563 556.773438 C 6360.195313 526.929688 6280.703125 393.726563 6146.484375 418.609375 Z M 6146.484375 418.609375 " transform="matrix(0.1,0,0,-0.1,0,448.9)"/>
<path style="fill-rule:evenodd;fill:rgb(13.719177%,12.156677%,12.547302%);fill-opacity:1;stroke-width:63.6;stroke-linecap:round;stroke-linejoin:round;stroke:rgb(13.719177%,12.156677%,12.547302%);stroke-opacity:1;stroke-miterlimit:4;" d="M 4228.046875 350.09375 C 4228.046875 350.09375 4145.898438 206.148438 4057.109375 235.757813 C 3968.320313 265.367188 4029.6875 511.65625 4085.039063 610.132813 C 4140.351563 708.609375 4250.859375 800.914063 4278.476563 726.8125 C 4306.09375 652.710938 4223.710938 598.453125 4283.671875 554.78125 C 4343.632813 511.070313 4382.34375 652.671875 4383.984375 706.070313 C 4385.625 759.390625 4366.328125 911.03125 4195.46875 847.4375 C 4024.570313 783.921875 3907.695313 482.515625 3912.695313 304.46875 C 3917.695313 126.382813 4076.71875 94.625 4187.1875 186.890625 C 4297.65625 279.195313 4352.734375 370.210938 4312.265625 414.859375 C 4271.757813 459.429688 4245.3125 376.421875 4228.046875 350.09375 Z M 4228.046875 350.09375 " transform="matrix(0.1,0,0,-0.1,0,448.9)"/>
<path style="fill-rule:evenodd;fill:rgb(13.719177%,12.156677%,12.547302%);fill-opacity:1;stroke-width:63.629;stroke-linecap:round;stroke-linejoin:round;stroke:rgb(13.719177%,12.156677%,12.547302%);stroke-opacity:1;stroke-miterlimit:4;" d="M 5097.695313 762.554688 C 5121.289063 762.554688 5140.429688 743.414063 5140.429688 719.820313 C 5140.429688 696.1875 5121.289063 677.046875 5097.695313 677.046875 C 5074.0625 677.046875 5054.960938 696.1875 5054.960938 719.820313 C 5054.960938 743.414063 5074.0625 762.554688 5097.695313 762.554688 Z M 5097.695313 762.554688 " transform="matrix(0.1,0,0,-0.1,0,448.9)"/>
<g clip-path="url(#clip1)" clip-rule="nonzero">
<path style=" stroke:none;fill-rule:evenodd;fill:rgb(0%,65.039063%,31.37207%);fill-opacity:1;" d="M 6.53125 403.605469 L 66.578125 448.835938 C 268.816406 353.945313 500.71875 318.800781 726.335938 325.222656 C 726.960938 323.6875 727.34375 322.570313 726.441406 322.429688 C 722.085938 321.738281 710.511719 322.492188 706.09375 322.113281 C 496.980469 304.242188 256.484375 332.445313 6.53125 403.605469 Z M 6.53125 403.605469 "/>
</g>
<g clip-path="url(#clip2)" clip-rule="nonzero">
<path style=" stroke:none;fill-rule:evenodd;fill:rgb(100%,100%,100%);fill-opacity:1;" d="M 11.601563 398.933594 L 66.976563 442.078125 C 258.476563 353.945313 485.238281 315.304688 726.960938 323.6875 C 727.769531 321.734375 727.628906 320.820313 726.125 320.734375 C 545.804688 310.414063 265.8125 326.5625 11.601563 398.933594 Z M 11.601563 398.933594 "/>
</g>
<path style="fill-rule:evenodd;fill:rgb(0%,65.039063%,31.37207%);fill-opacity:1;stroke-width:47.722;stroke-linecap:round;stroke-linejoin:round;stroke:rgb(100%,100%,100%);stroke-opacity:1;stroke-miterlimit:4;" d="M 4319.570313 316.148438 C 4319.570313 316.148438 4299.960938 262.945313 4329.257813 242.59375 C 4358.554688 222.28125 4378.59375 242.59375 4392.851563 267.554688 C 4407.070313 292.515625 4479.21875 550.445313 4558.164063 540.5625 C 4637.109375 530.679688 4575.546875 327.789063 4567.226563 299.585938 C 4558.90625 271.460938 4598.4375 195.484375 4667.539063 256.148438 C 4736.679688 316.8125 4866.132813 442.945313 4871.523438 424.859375 C 4876.992188 406.695313 4848.710938 267.046875 4940.664063 243.296875 C 5032.617188 219.546875 5123.710938 361.773438 5155.742188 333.882813 C 5187.773438 306.03125 5223.164063 242.125 5323.671875 252.476563 C 5424.140625 262.867188 5512.539063 366.304688 5511.875 345.40625 C 5511.25 324.46875 5494.296875 259.234375 5535.820313 247.476563 C 5577.304688 235.757813 5613.945313 260.054688 5623.242188 319.546875 C 5632.5 379.078125 5647.5 478.765625 5693.671875 472.867188 C 5739.84375 466.96875 5747.226563 415.914063 5746.914063 356.109375 C 5746.601563 296.304688 5749.726563 252.867188 5834.960938 253.257813 C 5920.195313 253.648438 6014.335938 352.359375 6014.335938 352.359375 C 6014.335938 352.359375 6020.507813 261.03125 6166.640625 249.039063 C 6312.773438 237.085938 6393.828125 394.546875 6402.109375 371.890625 C 6410.390625 349.234375 6397.460938 270.367188 6420.898438 253.179688 C 6444.257813 236.070313 6501.601563 253.6875 6507.96875 314.859375 C 6514.335938 375.914063 6520.429688 478.882813 6564.882813 514.898438 C 6609.335938 550.914063 6669.492188 562.515625 6677.226563 521.929688 C 6684.921875 481.304688 6624.101563 397.984375 6634.921875 312.4375 C 6645.78125 226.890625 6717.96875 242.59375 6789.882813 295.71875 C 6861.757813 348.804688 6921.796875 453.140625 6895.507813 473.375 C 6869.21875 493.648438 6790.546875 317.164063 6746.796875 352.632813 C 6703.007813 388.0625 6779.648438 547.164063 6797.03125 576.539063 C 6814.375 605.953125 6804.296875 667.554688 6743.59375 687.359375 C 6682.890625 707.125 6614.84375 585.171875 6563.203125 606.148438 C 6511.523438 627.164063 6555 679.703125 6508.632813 679.585938 C 6462.304688 679.507813 6428.203125 590.875 6424.765625 528.179688 C 6421.328125 465.484375 6408.4375 435.289063 6408.4375 435.289063 C 6408.4375 435.289063 6265.585938 310.289063 6183.28125 308.296875 C 6101.015625 306.382813 6098.632813 423.023438 6098.632813 423.023438 C 6098.632813 423.023438 6228.046875 402.632813 6311.210938 482.359375 C 6394.414063 561.96875 6381.328125 720.210938 6252.5 713.257813 C 6123.75 706.304688 6031.25 517.789063 6017.773438 419.546875 C 6017.773438 419.546875 5942.460938 351.617188 5858.4375 342.203125 C 5774.453125 332.789063 5776.289063 489.78125 5794.0625 534.039063 C 5811.875 578.335938 5939.726563 602.828125 5954.414063 644.234375 C 5969.140625 685.640625 5926.914063 722.828125 5851.445313 699.703125 C 5776.015625 676.617188 5709.101563 541.109375 5693.984375 537.085938 C 5678.90625 533.101563 5710.429688 635.289063 5739.570313 707.632813 C 5768.710938 779.976563 5825.585938 879.898438 5798.710938 880.71875 C 5771.835938 881.539063 5716.679688 886.265625 5700.625 850.875 C 5684.570313 815.445313 5544.492188 438.570313 5529.179688 425.5625 C 5513.828125 412.59375 5382.03125 306.03125 5307.617188 317.28125 C 5233.203125 328.53125 5215.351563 429.195313 5256.835938 514.664063 C 5298.320313 600.09375 5363.671875 634.039063 5380.820313 608.023438 C 5397.929688 582.085938 5355.78125 523.609375 5412.304688 514.351563 C 5468.828125 505.171875 5485.195313 598.84375 5445.039063 655.40625 C 5404.921875 711.929688 5301.757813 712.085938 5214.765625 605.640625 C 5127.773438 499.195313 5144.21875 401.539063 5144.21875 401.539063 C 5144.21875 401.539063 5051.640625 305.679688 4991.40625 340.40625 C 4931.171875 375.132813 4969.570313 457.632813 5002.460938 506.03125 C 5035.3125 554.351563 5074.140625 602.476563 5052.421875 624.078125 C 5030.664063 645.679688 5005.9375 667.359375 4982.695313 642.671875 C 4959.53125 617.945313 4782.929688 367.671875 4711.054688 363.921875 C 4639.179688 360.171875 4665 471.539063 4693.320313 516.96875 C 4721.640625 562.4375 4756.328125 621.1875 4716.015625 671.734375 C 4675.703125 722.359375 4538.203125 626.382813 4538.203125 626.382813 C 4538.203125 626.382813 4622.851563 900.367188 4604.921875 900.914063 C 4586.992188 901.460938 4515.507813 909.625 4504.21875 883.0625 C 4492.96875 856.539063 4383.28125 438.257813 4319.570313 316.148438 Z M 6130.3125 483.609375 C 6130.3125 483.609375 6206.875 651.578125 6275.46875 621.773438 C 6344.0625 591.929688 6264.53125 458.726563 6130.3125 483.609375 Z M 6130.3125 483.609375 " transform="matrix(0.1,0,0,-0.1,0,448.9)"/>
<path style="fill-rule:evenodd;fill:rgb(3.529358%,0.784302%,1.960754%);fill-opacity:1;stroke-width:197.313;stroke-linecap:round;stroke-linejoin:round;stroke:rgb(3.529358%,0.784302%,1.960754%);stroke-opacity:1;stroke-miterlimit:4;" d="M 994.609375 2510.71875 C 994.609375 2510.71875 813.75 2291.539063 610.9375 2560.054688 C 453.867188 2768.101563 653.046875 3442.59375 1019.296875 3711.03125 C 1501.601563 4064.546875 2706.171875 4419.039063 2916.367188 3773.21875 C 3159.570313 3025.914063 2455.273438 2716.265625 1814.023438 2721.734375 C 1814.023438 2721.734375 1487.890625 2145.914063 1134.375 1774.742188 C 780.859375 1403.609375 391.71875 1225.445313 210.859375 1370.71875 C 29.960938 1515.953125 191.679688 1715.992188 350.625 1661.1875 C 509.570313 1606.382813 583.554688 1633.765625 778.125 1814.664063 C 972.695313 1995.523438 1370.078125 2491.539063 1589.296875 2891.65625 C 1808.554688 3291.773438 1957.65625 3583.257813 2123.671875 3508.257813 C 2293.59375 3431.539063 1975.703125 3017.710938 1975.703125 3017.710938 C 1975.703125 3017.710938 2592.304688 3009.46875 2674.53125 3409.585938 C 2756.71875 3809.703125 2447.070313 3922.046875 2003.125 3856.304688 C 1559.140625 3790.523438 1213.867188 3565.796875 1030.234375 3376.695313 C 846.640625 3187.632813 832.929688 2858.765625 906.914063 2847.789063 C 980.898438 2836.851563 1145.351563 2732.710938 994.609375 2510.71875 Z M 994.609375 2510.71875 " transform="matrix(0.1,0,0,-0.1,0,448.9)"/>
<path style="fill-rule:evenodd;fill:rgb(3.529358%,0.784302%,1.960754%);fill-opacity:1;stroke-width:197.313;stroke-linecap:round;stroke-linejoin:round;stroke:rgb(3.529358%,0.784302%,1.960754%);stroke-opacity:1;stroke-miterlimit:4;" d="M 5967.734375 1691.734375 C 5967.734375 1691.734375 5922.773438 1657.984375 5967.734375 1603.648438 C 6012.734375 1549.273438 6072.734375 1583.023438 6142.070313 1639.273438 C 6211.445313 1695.484375 6280.78125 1789.195313 6297.65625 1770.484375 C 6314.53125 1751.734375 6376.40625 1593.609375 6593.867188 1576.109375 C 6811.328125 1558.648438 6966.953125 1807.984375 6953.828125 2036.65625 C 6940.703125 2265.367188 6774.375 2523.53125 6689.492188 2524.078125 C 6628.632813 2524.507813 6552.617188 2383.492188 6481.40625 2287.90625 C 6410.15625 2192.28125 6063.359375 1770.484375 5967.734375 1691.734375 Z M 6426.054688 1899.351563 C 6426.054688 1899.351563 6528.828125 2015.835938 6575.390625 2093.921875 C 6621.992188 2172.046875 6643.90625 2269.3125 6665.820313 2258.375 C 6687.773438 2247.398438 6865.898438 2077.476563 6778.203125 1902.085938 C 6690.507813 1726.734375 6519.21875 1755.484375 6426.054688 1899.351563 Z M 6426.054688 1899.351563 " transform="matrix(0.1,0,0,-0.1,0,448.9)"/>
<path style="fill-rule:evenodd;fill:rgb(3.529358%,0.784302%,1.960754%);fill-opacity:1;stroke-width:197.313;stroke-linecap:round;stroke-linejoin:round;stroke:rgb(3.529358%,0.784302%,1.960754%);stroke-opacity:1;stroke-miterlimit:4;" d="M 2758.90625 2344.390625 C 2758.90625 2344.390625 2749.882813 2547.398438 2576.171875 2599.3125 C 2402.460938 2651.1875 2005.429688 2351.148438 1998.671875 1859.351563 C 1991.914063 1367.554688 2476.953125 1603.804688 2544.609375 1781.226563 C 2544.609375 1781.226563 2639.375 1552.554688 2831.132813 1550.289063 C 3022.851563 1548.023438 3232.773438 1764.625 3309.453125 1927.046875 C 3365.9375 2046.734375 3478.632813 2229.351563 3553.046875 2209.039063 C 3650.195313 2182.476563 3535.078125 1981.1875 3523.710938 1852.59375 C 3508.125 1676.148438 3589.140625 1514.15625 3830.546875 1570.601563 C 4071.914063 1627.007813 4128.320313 1766.851563 4128.320313 1766.851563 C 4128.320313 1766.851563 4135.117188 1577.359375 4342.65625 1568.335938 C 4550.234375 1559.3125 4631.445313 1827.789063 4656.25 1764.625 C 4681.09375 1701.421875 4760.039063 1566.109375 4920.234375 1563.84375 C 5080.390625 1561.539063 5236.054688 1771.34375 5249.609375 1744.273438 C 5263.125 1717.242188 5272.109375 1594.859375 5421.09375 1563.804688 C 5583.476563 1529.976563 5878.984375 1774.117188 5962.539063 2098.492188 C 6057.226563 2466.226563 5856.445313 2732.398438 5574.492188 2531.617188 C 5272.265625 2316.421875 5278.945313 2021.773438 5197.734375 1929.273438 C 5116.523438 1836.773438 5033.085938 1743.21875 4913.515625 1793.375 C 4793.945313 1843.609375 4879.648438 2030.796875 4945.078125 2181.96875 C 5010.507813 2333.101563 5290.234375 2937.710938 5238.359375 2944.507813 C 5186.484375 2951.265625 5012.773438 2973.804688 4985.703125 2915.171875 C 4958.632813 2856.539063 4809.726563 2479.78125 4809.726563 2479.78125 C 4809.726563 2479.78125 4638.242188 2703.101563 4421.679688 2527.125 C 4205.117188 2351.1875 4116.640625 2027.203125 4110.351563 1877.398438 C 4110.351563 1877.398438 3968.203125 1665.328125 3799.023438 1748.84375 C 3629.84375 1832.28125 3826.09375 2245.132813 3866.679688 2317.359375 C 3907.304688 2389.507813 3918.59375 2484.273438 3794.492188 2459.46875 C 3670.429688 2434.625 3514.765625 2403.0625 3512.5 2463.960938 C 3510.273438 2524.898438 3478.671875 2597.085938 3417.773438 2527.164063 C 3356.875 2457.203125 3183.125 2033.101563 3016.171875 1848.101563 C 2849.21875 1663.101563 2752.226563 1836.8125 2777.03125 1947.359375 C 2801.875 2057.90625 2892.109375 2355.71875 2856.015625 2382.789063 C 2819.921875 2409.859375 2758.90625 2344.390625 2758.90625 2344.390625 Z M 4649.648438 2361.34375 C 4724.960938 2323.609375 4723.007813 2177.671875 4645.3125 2035.484375 C 4567.578125 1893.296875 4443.554688 1808.609375 4368.242188 1846.382813 C 4292.929688 1884.15625 4294.882813 2030.054688 4372.578125 2172.242188 C 4450.273438 2314.46875 4574.335938 2399.117188 4649.648438 2361.34375 Z M 5756.796875 2361.34375 C 5832.109375 2323.609375 5830.15625 2177.671875 5752.460938 2035.484375 C 5674.765625 1893.296875 5550.703125 1808.609375 5475.390625 1846.382813 C 5400.078125 1884.15625 5402.03125 2030.054688 5479.726563 2172.242188 C 5557.421875 2314.46875 5681.484375 2399.117188 5756.796875 2361.34375 Z M 2537.695313 2361.34375 C 2613.007813 2323.609375 2611.054688 2177.671875 2533.359375 2035.484375 C 2455.625 1893.296875 2331.601563 1808.609375 2256.289063 1846.382813 C 2180.976563 1884.15625 2182.929688 2030.054688 2260.625 2172.242188 C 2338.320313 2314.46875 2462.382813 2399.117188 2537.695313 2361.34375 Z M 2537.695313 2361.34375 " transform="matrix(0.1,0,0,-0.1,0,448.9)"/>
<path style="fill-rule:evenodd;fill:rgb(92.96875%,10.984802%,14.109802%);fill-opacity:1;stroke-width:109.619;stroke-linecap:round;stroke-linejoin:round;stroke:rgb(100%,100%,100%);stroke-opacity:1;stroke-miterlimit:4;" d="M 965.351563 2580.953125 C 965.351563 2580.953125 784.492188 2361.695313 581.679688 2630.289063 C 424.570313 2838.335938 623.75 3512.828125 990 3781.265625 C 1472.34375 4134.78125 2676.914063 4489.195313 2887.109375 3843.375 C 3130.3125 3096.148438 2426.015625 2786.460938 1784.765625 2791.96875 C 1784.765625 2791.96875 1458.632813 2216.148438 1105.117188 1844.976563 C 751.601563 1473.804688 362.460938 1295.71875 181.5625 1440.914063 C 0.703125 1586.148438 162.382813 1786.226563 321.328125 1731.382813 C 480.273438 1676.578125 554.296875 1704.039063 748.867188 1884.859375 C 943.4375 2065.757813 1340.78125 2561.773438 1560.039063 2961.890625 C 1779.257813 3361.96875 1928.398438 3653.453125 2094.414063 3578.453125 C 2264.335938 3501.734375 1946.445313 3087.945313 1946.445313 3087.945313 C 1946.445313 3087.945313 2563.046875 3079.703125 2645.273438 3479.859375 C 2727.460938 3879.9375 2417.8125 3992.28125 1973.828125 3926.539063 C 1529.882813 3860.757813 1184.609375 3636.03125 1000.976563 3446.96875 C 817.382813 3257.828125 803.671875 2929.039063 877.65625 2918.023438 C 951.640625 2907.046875 1116.09375 2802.90625 965.351563 2580.953125 Z M 965.351563 2580.953125 " transform="matrix(0.1,0,0,-0.1,0,448.9)"/>
<path style="fill-rule:evenodd;fill:rgb(92.96875%,10.984802%,14.109802%);fill-opacity:1;stroke-width:109.619;stroke-linecap:round;stroke-linejoin:round;stroke:rgb(100%,100%,100%);stroke-opacity:1;stroke-miterlimit:4;" d="M 5938.476563 1761.96875 C 5938.476563 1761.96875 5893.515625 1728.21875 5938.476563 1673.84375 C 5983.476563 1619.507813 6043.476563 1653.21875 6112.8125 1709.46875 C 6182.1875 1765.71875 6251.523438 1859.46875 6268.398438 1840.71875 C 6285.273438 1821.96875 6347.148438 1663.804688 6564.609375 1646.34375 C 6782.070313 1628.882813 6937.695313 1878.21875 6924.570313 2106.890625 C 6911.445313 2335.601563 6745.117188 2593.726563 6660.234375 2594.3125 C 6599.375 2594.742188 6523.359375 2453.726563 6452.109375 2358.101563 C 6380.898438 2262.476563 6034.101563 1840.71875 5938.476563 1761.96875 Z M 6396.757813 1969.585938 C 6396.757813 1969.585938 6499.570313 2086.109375 6546.132813 2164.15625 C 6592.734375 2242.28125 6614.648438 2339.546875 6636.5625 2328.609375 C 6658.515625 2317.632813 6836.640625 2147.710938 6748.945313 1972.359375 C 6661.25 1796.96875 6489.960938 1825.71875 6396.757813 1969.585938 Z M 6396.757813 1969.585938 " transform="matrix(0.1,0,0,-0.1,0,448.9)"/>
<path style="fill-rule:evenodd;fill:rgb(92.96875%,10.984802%,14.109802%);fill-opacity:1;stroke-width:109.619;stroke-linecap:round;stroke-linejoin:round;stroke:rgb(100%,100%,100%);stroke-opacity:1;stroke-miterlimit:4;" d="M 2729.648438 2414.625 C 2729.648438 2414.625 2720.625 2617.632813 2546.914063 2669.507813 C 2373.203125 2721.421875 1976.171875 2421.382813 1969.414063 1929.585938 C 1962.65625 1437.789063 2447.65625 1674.039063 2515.351563 1851.460938 C 2515.351563 1851.460938 2610.117188 1622.789063 2801.835938 1620.523438 C 2993.59375 1618.257813 3203.515625 1834.859375 3280.195313 1997.28125 C 3336.679688 2116.96875 3449.375 2299.585938 3523.789063 2279.273438 C 3620.9375 2252.710938 3505.78125 2051.421875 3494.453125 1922.828125 C 3478.867188 1746.34375 3559.882813 1584.390625 3801.25 1640.796875 C 4042.65625 1697.242188 4099.0625 1837.085938 4099.0625 1837.085938 C 4099.0625 1837.085938 4105.859375 1647.59375 4313.398438 1638.609375 C 4520.976563 1629.546875 4602.1875 1898.023438 4626.992188 1834.859375 C 4651.796875 1771.65625 4730.78125 1636.304688 4890.976563 1634.039063 C 5051.132813 1631.773438 5206.796875 1841.578125 5220.3125 1814.507813 C 5233.867188 1787.4375 5242.851563 1665.015625 5391.835938 1634.039063 C 5554.21875 1600.210938 5849.726563 1844.3125 5933.242188 2168.6875 C 6027.96875 2536.421875 5827.1875 2802.632813 5545.234375 2601.851563 C 5243.007813 2386.617188 5249.6875 2092.007813 5168.476563 1999.507813 C 5087.265625 1907.007813 5003.828125 1813.453125 4884.21875 1863.609375 C 4764.648438 1913.804688 4850.390625 2101.03125 4915.820313 2252.164063 C 4981.25 2403.335938 5260.976563 3007.945313 5209.101563 3014.703125 C 5157.226563 3021.539063 4983.515625 3044.039063 4956.445313 2985.40625 C 4929.335938 2926.734375 4780.46875 2549.976563 4780.46875 2549.976563 C 4780.46875 2549.976563 4608.984375 2773.335938 4392.421875 2597.359375 C 4175.859375 2421.382813 4087.382813 2097.4375 4081.09375 1947.632813 C 4081.09375 1947.632813 3938.945313 1735.5625 3769.765625 1819.039063 C 3600.585938 1902.515625 3796.835938 2315.367188 3837.421875 2387.554688 C 3878.046875 2459.742188 3889.296875 2554.507813 3765.234375 2529.703125 C 3641.171875 2504.859375 3485.507813 2473.296875 3483.242188 2534.195313 C 3480.976563 2595.132813 3449.414063 2667.359375 3388.515625 2597.359375 C 3327.578125 2527.4375 3153.867188 2103.296875 2986.914063 1918.335938 C 2819.960938 1733.335938 2722.96875 1907.007813 2747.773438 2017.554688 C 2772.617188 2128.140625 2862.851563 2425.914063 2826.757813 2452.984375 C 2790.625 2480.054688 2729.648438 2414.625 2729.648438 2414.625 Z M 4620.390625 2431.578125 C 4695.703125 2393.804688 4693.75 2247.90625 4616.054688 2105.71875 C 4538.320313 1963.53125 4414.296875 1878.84375 4338.945313 1916.617188 C 4263.632813 1954.390625 4265.585938 2100.289063 4343.320313 2242.476563 C 4421.015625 2384.664063 4545.078125 2469.351563 4620.390625 2431.578125 Z M 5727.539063 2431.578125 C 5802.851563 2393.804688 5800.898438 2247.90625 5723.203125 2105.71875 C 5645.46875 1963.53125 5521.445313 1878.84375 5446.132813 1916.617188 C 5370.820313 1954.390625 5372.773438 2100.289063 5450.46875 2242.476563 C 5528.164063 2384.664063 5652.226563 2469.351563 5727.539063 2431.578125 Z M 2508.4375 2431.578125 C 2583.75 2393.804688 2581.796875 2247.90625 2504.101563 2105.71875 C 2426.367188 1963.53125 2302.304688 1878.84375 2226.992188 1916.617188 C 2151.679688 1954.390625 2153.632813 2100.289063 2231.367188 2242.476563 C 2309.0625 2384.664063 2433.125 2469.351563 2508.4375 2431.578125 Z M 2508.4375 2431.578125 " transform="matrix(0.1,0,0,-0.1,0,448.9)"/>
<path style="fill-rule:evenodd;fill:rgb(0%,65.039063%,31.37207%);fill-opacity:1;stroke-width:47.701;stroke-linecap:round;stroke-linejoin:round;stroke:rgb(100%,100%,100%);stroke-opacity:1;stroke-miterlimit:4;" d="M 4211.914063 415.09375 C 4211.914063 415.09375 4129.765625 271.148438 4040.976563 300.757813 C 3952.148438 330.367188 4013.554688 576.65625 4068.867188 675.132813 C 4124.21875 773.609375 4234.726563 865.914063 4262.34375 791.8125 C 4289.960938 717.710938 4207.578125 663.453125 4267.539063 619.78125 C 4327.5 576.070313 4366.210938 717.671875 4367.851563 771.070313 C 4369.492188 824.390625 4350.195313 976.03125 4179.296875 912.4375 C 4008.4375 848.921875 3891.5625 547.515625 3896.5625 369.46875 C 3901.5625 191.382813 4060.546875 159.625 4171.015625 251.890625 C 4281.484375 344.195313 4336.601563 435.210938 4296.132813 479.859375 C 4255.625 524.429688 4229.179688 441.421875 4211.914063 415.09375 Z M 4211.914063 415.09375 " transform="matrix(0.1,0,0,-0.1,0,448.9)"/>
<g clip-path="url(#clip3)" clip-rule="nonzero">
<path style=" stroke:none;fill-rule:evenodd;fill:rgb(92.96875%,10.984802%,14.109802%);fill-opacity:1;" d="M 19.257813 396.347656 L 67.773438 433.726563 C 256.890625 346.390625 479.386719 312.695313 727.886719 320.789063 C 513.578125 299.046875 278.105469 322.65625 19.257813 396.347656 Z M 19.257813 396.347656 "/>
</g>
<path style="fill-rule:evenodd;fill:rgb(0%,65.039063%,31.37207%);fill-opacity:1;stroke-width:47.722;stroke-linecap:round;stroke-linejoin:round;stroke:rgb(100%,100%,100%);stroke-opacity:1;stroke-miterlimit:4;" d="M 5081.5625 827.554688 C 5105.15625 827.554688 5124.296875 808.414063 5124.296875 784.820313 C 5124.296875 761.1875 5105.15625 742.046875 5081.5625 742.046875 C 5057.929688 742.046875 5038.789063 761.1875 5038.789063 784.820313 C 5038.789063 808.414063 5057.929688 827.554688 5081.5625 827.554688 Z M 5081.5625 827.554688 " transform="matrix(0.1,0,0,-0.1,0,448.9)"/>
</g>
</svg>
